<svg fill="none" height="80" viewBox="0 0 24 80" width="24" xmlns="http://www.w3.org/2000/svg"><g fill="#000"><path d="m6.36122 62.8872h-.66122v-10.3316h.66122c4.04998-2.3969 9.38108-6.1164 9.38108-10.7036 0-2.3556-.6612-4.6285-1.6943-6.7362-.124-.6612.4132-1.1158.9505-1.1158.2892 0 .6199.124.8265.4546 1.0332 2.3143 1.6531 4.8353 1.6531 7.3974 0 8.4307-11.11688 12.6047-11.11688 21.0352z"/><path d="m5.48307 25.0001h.60385c.2668 0 .48308.2046.48308.457v37.543h-1.57v-38.5001c0-.2524.21628.5001.48307.5001z"/><path d="m14.0918 17c2.3143 0 4.5046 1.1985 4.5046 3.7607 0 2.9755-2.3143 5.0005-4.2566 6.1577-1.4878.8678-3.1408 1.4877-4.83521 1.4877-2.31429 0-4.50459-1.1984-4.50459-3.7607 0-2.9755 2.31428-5.0005 4.25662-6.1576 1.48778-.8679 3.14078-1.4878 4.83518-1.4878z"/></g></svg>