<svg fill="none" height="80" viewBox="0 0 24 80" width="24" xmlns="http://www.w3.org/2000/svg"><g fill="#000"><path clip-rule="evenodd" d="m4.10824 53.5008c-3.156289 1.6971-4.838079 4.7692-3.803539 7.0803 1.103509 2.4651 4.895449 3.1608 8.464199 1.5529 3.5687-1.6079 5.5694-4.9136 4.4659-7.3787s-4.8954-3.1608-8.46416-1.5529c-.22304.1005-.45198.1853-.6624.2984z" fill-rule="evenodd"/><path d="m13.4469 17.0143.0373 19.7764.0373 19.7764h-1.5667l.1306-39.5671z"/><path d="m13.4234 17.0142c.1276.3608.2289.7303.303 1.1047.1878.9503.2022 1.9394.5452 2.8489.4943 1.3108 1.6069 2.3016 2.6655 3.256 2.1206 1.9117 4.2234 3.9547 5.3917 6.5119 1.4407 3.1533 1.3021 6.81.3029 10.1168-.3803 1.2587-.8786 2.4812-1.363 3.7066-.0409.1034-.082.2074-.1386.3038s-.1299.1858-.2249.2485c-.0642.0424-.1385.0722-.2161.0795-.0776.0074-.1585-.0086-.2231-.0504-.0472-.0305-.0847-.0737-.1117-.1218-.0271-.048-.0441-.1008-.0549-.1544-.0281-.1385-.0159-.2813 0-.4215.0488-.4302.132-.8562.2272-1.2792.2523-1.1216.589-2.2252.8155-3.3519.3797-1.8889.4407-3.8701-.1285-5.7146-.5154-1.6703-1.5482-3.1902-2.9329-4.3164-1.3848-1.1262-3.1165-1.8545-4.9178-2.0684"/></g></svg>