<svg fill="none" height="27" viewBox="0 0 9 27" width="9" xmlns="http://www.w3.org/2000/svg" xmlns:xlink="http://www.w3.org/1999/xlink"><clipPath id="a"><path d="m0 0h9v27h-9z"/></clipPath><g clip-path="url(#a)" fill="#000"><path d="m.863429 26.6467h-.425073v-6.6417h.425073c2.603571-1.5409 6.030721-3.932 6.030721-6.8809 0-1.5143-.42508-2.9755-1.08925-4.33042-.0797-.42507.26567-.71731.61104-.71731.18597 0 .39851.0797.53134.29224.66418 1.48775 1.06268 3.10839 1.06268 4.75549 0 5.4197-7.146531 8.103-7.146531 13.5226z"/><path d="m.597758 4.91357h-.332088c-.146725 0-.26567.11895-.26567.26567v21.46746c0 .1468.118945.2657.26567.2657h.332088c.146726 0 .265671-.1189.265671-.2657v-21.46746c0-.14672-.118945-.26567-.265671-.26567z"/><path d="m5.84475.00001752c1.48775 0 2.8958.77044448 2.8958 2.41760248 0 1.91282-1.48775 3.21461-2.7364 3.95849-.95641.5579-2.01909.95641-3.10834.95641-1.48776 0-2.89581-.77044-2.89581-2.4176 0-1.91283 1.48775-3.21461 2.7364-3.958489.95642-.557908 2.0191-.95641348 3.10835-.95641348z"/></g></svg>