<svg fill="none" height="80" viewBox="0 0 24 80" width="24" xmlns="http://www.w3.org/2000/svg"><g fill="#000"><path d="m5.47447 27.0846-.00001 35.9155h1.57l.00001-35.9155-1.57-1.5845z"/><path d="m6.29517 25.2163c0 .9714.84995 1.6595 1.69991 1.6595.16189 0 .32379 0 .48568-.0405 1.2547-.3643 3.11654-1.619 4.61404-2.5903 1.4975-.9714 3.3998-2.1452 4.2093-3.157.2833-.3238.4452-.7285.4452-1.1333 0-.9714-.85-1.6594-1.6999-1.6594-.1619 0-.3238 0-.4857.0405-1.2547.3642-3.157 1.6189-4.6545 2.5903-1.49753.9714-3.39981 2.1451-4.20929 3.157-.28332.3238-.40474.7285-.40474 1.1332zm2.06417 2.9142c-1.90227 0-3.35933-.85-3.35933-2.9142 0-.769.16189-1.4975.40474-2.2665.48568-1.538 1.29516-2.9951 2.6308-3.8855 2.18555-1.4571 4.57355-2.0642 7.60915-2.0642 1.9022 0 3.3998.8904 3.3998 2.9546 0 .769-.2024 1.4976-.4452 2.2666-.4857 1.538-1.2547 2.995-2.5904 3.8855-2.1856 1.457-4.614 2.0237-7.64956 2.0237z"/></g></svg>