<svg fill="none" height="80" viewBox="0 0 24 80" width="24" xmlns="http://www.w3.org/2000/svg"><g fill="#000"><path d="m18.57 52.9155v-35.9154l-1.57-.0001v35.9155l1.57 1.5845z"/><path d="m17.7493 54.7838c0-.9714-.85-1.6594-1.6999-1.6594-.1619 0-.3238 0-.4857.0404-1.2547.3643-3.1165 1.619-4.614 2.5904-1.49757.9713-3.39984 2.1451-4.20932 3.1569-.28332.3238-.44521.7286-.44521 1.1333 0 .9714.84995 1.6594 1.6999 1.6594.1619 0 .32379 0 .48569-.0404 1.25469-.3643 3.15694-1.619 4.65454-2.5904 1.4975-.9713 3.3998-2.1451 4.2093-3.1569.2833-.3238.4047-.7286.4047-1.1333zm-2.0642-2.9141c1.9023 0 3.3594.8499 3.3594 2.9141 0 .769-.1619 1.4975-.4048 2.2665-.4857 1.538-1.2951 2.9951-2.6308 3.8855-2.1856 1.4571-4.5735 2.0642-7.60909 2.0642-1.90227 0-3.39981-.8904-3.39981-2.9546 0-.769.20237-1.4975.44521-2.2665.48569-1.538 1.2547-2.9951 2.59034-3.8855 2.18555-1.4571 4.61405-2.0237 7.64955-2.0237z"/></g></svg>