<svg fill="none" height="80" viewBox="0 0 24 80" width="24" xmlns="http://www.w3.org/2000/svg"><g fill="#000"><path d="m6.80653 54.9052c3.77507-2.0138 8.78117-5.1727 8.78117-9.2004 0-.9476-.2052-1.8953-.5745-2.764-3.2827 3.5143-8.20667 6.3178-8.20667 11.1747zm11.03797-18.0849c0 1.7375-.6155 3.2379-1.5592 4.5805.6565 1.3425 1.0258 2.8035 1.0258 4.304 0 7.1471-10.50457 10.1481-10.50457 17.2952h-.65654l.00001-19.7433h.65653v2.764c4.02127-1.9348 9.31457-5.0148 9.31457-9.2004 0-.8292-.2462-1.6584-.5744-2.4481-.1231-.6318.4103-1.0662.9437-1.0662 1.231 0 1.3541 2.4877 1.3541 3.5143z"/><path d="m6.33694 24h-.60385c-.26679 0-.48307.2109-.48307.471l-.00001 38.529h1.57v-38.529c0-.2601-.21628-.471-.48307-.471z"/><path d="m14.2774 17c2.2978 0 4.4726 1.1451 4.4726 3.5933 0 2.843-2.2979 4.7779-4.2264 5.8835-1.4772.8292-3.1186 1.4215-4.80094 1.4215-2.29787 0-4.47264-1.1451-4.47264-3.5933 0-2.843 2.29787-4.7779 4.22644-5.8835 1.47724-.8292 3.11854-1.4215 4.80094-1.4215z"/></g></svg>