<svg fill="none" height="80" viewBox="0 0 24 80" width="24" xmlns="http://www.w3.org/2000/svg"><g fill="#000"><path clip-rule="evenodd" d="m4.10803 52.6319c-3.156124 1.7681-4.837832 4.9689-3.803346 7.3768 1.103446 2.5684 4.895206 3.2932 8.463736 1.618 3.56848-1.6753 5.56918-5.1194 4.46568-7.6878-1.1034-2.5684-4.89517-3.2932-8.4637-1.618-.22303.1047-.45195.1931-.66237.311z" fill-rule="evenodd" opacity=".97"/><path d="m13.4462 17.3712.0373 19.2277.0373 19.2277h-1.5666l.1306-38.4693z"/><path d="m13.4462 17.3573c.1351.3178.2423.6432.3206.9729.1988.837.214 1.7081.577 2.5091.5231 1.1544 1.7005 2.027 2.8208 2.8675 2.2442 1.6837 4.4694 3.4829 5.7058 5.7351 1.5246 2.7771 1.3779 5.9975.3205 8.9099-.4024 1.1085-.9297 2.1852-1.4424 3.2643-.0433.0912-.0868.1827-.1467.2677-.0599.0849-.1374.1636-.238.2188-.068.0374-.1465.0636-.2286.07-.0821.0065-.1677-.0076-.2362-.0444-.0499-.0268-.0895-.0649-.1182-.1072-.0286-.0423-.0466-.0888-.0581-.136-.0297-.122-.0168-.2478 0-.3713.0517-.3788.1397-.754.2404-1.1265.267-.9878.6234-1.9597.8631-2.952.4018-1.6636.4663-3.4084-.136-5.033-.5454-1.471-1.6384-2.8096-3.1038-3.8014-1.4654-.9919-3.298-1.6333-5.2043-1.8216" opacity=".97"/><path d="m12.1419 21.5706c.1298.3523.2328.7131.3081 1.0787.191.9279.2056 1.8938.5545 2.7819.5027 1.2799 1.6342 2.2474 2.7109 3.1794 2.1567 1.8667 4.2952 3.8616 5.4835 6.3587 1.4652 3.079 1.3242 6.6497.3081 9.8787-.3868 1.2291-.8936 2.4228-1.3863 3.6193-.0416.1011-.0834.2026-.1409.2967-.0576.0942-.1322.1814-.2288.2427-.0653.0414-.1408.0704-.2197.0776s-.1612-.0084-.227-.0492c-.048-.0298-.086-.072-.1136-.1189-.0275-.0469-.0448-.0985-.0558-.1508-.0286-.1352-.0162-.2747 0-.4116.0497-.4201.1343-.836.231-1.2491.2566-1.0952.5991-2.1728.8295-3.273.3862-1.8445.4481-3.779-.1307-5.5802-.5242-1.631-1.5745-3.1151-2.9829-4.2148s-3.1695-1.8109-5.0015-2.0197" opacity=".97"/></g></svg>