<svg height="45" viewBox="0 0 24 45" width="24" xmlns="http://www.w3.org/2000/svg"><path d="m-324.08866-373.65536c.58398 1.72094 1.04761 3.48271 1.38637 5.26818.85985 4.53199.92544 9.24894 2.49545 13.58637 2.2626 6.25082 7.35465 10.97595 12.2 15.52728 9.70582 9.11684 19.32974 18.85932 24.67728 31.05455 6.5938 15.03735 5.95937 32.47563 1.38637 48.24547-1.74073 6.00282-4.02127 11.83258-6.23864 17.67614-.18725.49347-.37509.98929-.63422 1.4491s-.59456.88586-1.02942 1.18499c-.29398.20222-.63383.34412-.98892.3792-.35509.0351-.72532-.0413-1.02131-.24056-.21599-.14542-.38735-.35156-.51115-.58062-.12381-.22907-.20159-.48085-.25135-.73643-.12854-.66033-.0729-1.34146 0-2.01023.22357-2.05146.60431-4.08286 1.03978-6.1 1.15473-5.34892 2.69608-10.61174 3.73269-15.9848 1.73791-9.00812 2.01692-18.45597-.58819-27.25255-2.35898-7.96549-7.08577-15.21369-13.42375-20.58433-6.33798-5.37065-14.26363-8.84382-22.50826-9.86357" opacity=".97"/><g transform="translate(-32.138174 .257846)"><path d="m8.2509855 34.135495c-2.8722 1.6091-4.40262 4.52196-3.46119 6.7132 1.00418 2.33735 4.45483 2.99698 7.7023295 1.47242 3.2475-1.52457 5.06817-4.65887 4.06398-6.99619-1.00419-2.33734-4.45483-2.99698-7.7023295-1.47242-.20297.0953-.4113.17571-.60279.28299z" fill-rule="evenodd" opacity=".97"/><path d="m16.749125 1.5448315.0339 17.7489675.034 17.748966h-1.42569l.1188-35.5107395z"/></g><path d="m44.194809 113.4638a2.3096569 2.3096569 0 0 1 -.51586 3.22485 2.3096569 2.3096569 0 0 1 -3.22501-.51487 2.3096569 2.3096569 0 0 1 .51389-3.22517 2.3096569 2.3096569 0 0 1 3.22532.51291"/><path d="m-74.623764-6.087186h24v45h-24z" opacity=".5"/><path d="m183.32825 537.99494c-.0782.79555-.68256 1.40368-1.19687 1.96109-1.15225 1.10754-2.56427 1.99311-4.12017 2.36584-.46096.0803-1.20431.15743-1.33738-.44577-.12869-.63823.34991-1.19826.71087-1.67032.93637-1.0914 2.16336-1.90662 3.46138-2.49046.67552-.25498 1.46154-.57669 2.16957-.26786.19352.1094.32686.31899.3126.54748zm-1.93652-1.64694c-1.75837.0126-3.42696.98907-4.51076 2.35816-.72453.93873-1.20559 2.29898-.61753 3.42466.4431.90504 1.50068 1.264 2.44275 1.21234 1.62491-.0343 3.13171-.9351 4.20842-2.12448.79704-.91485 1.38444-2.23856.92279-3.44802-.33386-.88056-1.25008-1.39227-2.15405-1.41323-.0971-.006-.19439-.009-.29162-.009z" stroke="#000" stroke-width=".278524" transform="matrix(7.2975887 -3.7032088 9.40463 3.2826227 -5973.232 -758.7401)"/><path d="m183.32825 537.99494c-.0782.79555-.68256 1.40368-1.19687 1.96109-1.15225 1.10754-2.56427 1.99311-4.12017 2.36584-.46096.0803-1.20431.15743-1.33738-.44577-.12869-.63823.34991-1.19826.71087-1.67032.93637-1.0914 2.16336-1.90662 3.46138-2.49046.67552-.25498 1.46154-.57669 2.16957-.26786.19352.1094.32686.31899.3126.54748zm-1.93652-1.64694c-1.75837.0126-3.42696.98907-4.51076 2.35816-.72453.93873-1.20559 2.29898-.61753 3.42466.4431.90504 1.50068 1.264 2.44275 1.21234 1.62491-.0343 3.13171-.9351 4.20842-2.12448.79704-.91485 1.38444-2.23856.92279-3.44802-.33386-.88056-1.25008-1.39227-2.15405-1.41323-.0971-.006-.19439-.009-.29162-.009z" stroke="#000" stroke-width=".301292" transform="matrix(6.8241963 .63850265 -.66434486 7.2989692 -348.98762 -3710.2372)"/><path d="m549.52977 163.28.17073 83.22268.18458 89.79861-7.1845-6.57594.59756-166.50539z"/><path d="m589.94758 227.20162a11.616642 11.616642 0 0 1 -2.59457 16.21969 11.616642 11.616642 0 0 1 -16.22048-2.5896 11.616642 11.616642 0 0 1 2.58465-16.22128 11.616642 11.616642 0 0 1 16.22207 2.5797"/><g transform="translate(-99.10621 -273.60444)"><path d="m-303.11376 90.170314c-14.446 8.09311-22.1434 22.743616-17.40842 33.764716 5.05064 11.75589 22.40601 15.07359 38.73964 7.40566 16.3336-7.66796 25.49082-23.43222 20.44018-35.188036-5.05068-11.75587-22.406-15.07358-38.73964-7.40565-1.02084.47923-2.06865.88376-3.03176 1.42331z" fill-rule="evenodd" opacity=".97"/><path d="m-260.37157-83.829493.17073 94.311107.17073 94.311096h-7.17065l.59756-188.690248z"/><path d="m-63.49547 5.2681831c.583982 1.7209401 1.047606 3.4827103 1.386364 5.2681829.859856 4.531986.925444 9.248935 2.495455 13.586367 2.262596 6.250819 7.354645 10.975949 12.200003 15.527277 9.705818 9.11684 19.329738 18.859329 24.677279 31.054552 6.593799 15.037352 5.959364 32.475628 1.386364 48.245468-1.740722 6.00282-4.021266 11.83258-6.238638 17.67614-.18725.49347-.375085.98929-.634218 1.4491-.259134.45981-.594564.88586-1.029419 1.18499-.293981.20222-.633832.34412-.988921.3792-.355089.0351-.72532-.0413-1.021307-.24056-.215991-.14542-.387352-.35156-.511157-.58062-.123805-.22907-.201589-.48085-.251343-.73643-.128547-.66033-.07288-1.34146 0-2.01023.223565-2.05146.604309-4.08286 1.039773-6.1 1.154738-5.34892 2.696081-10.61174 3.73269-15.9848 1.73791-9.00812 2.016923-18.455962-.588184-27.252549-2.358978-7.965491-7.085775-15.213682-13.423754-20.584327-6.337979-5.370646-14.263629-8.843823-22.50826-9.863567" opacity=".97" transform="translate(-196.98347 -89.097676)"/></g><path d="m-381.39503 160.65391c-14.446 7.76733-22.1434 21.8281-17.40842 32.40557 5.05064 11.28267 22.40601 14.46683 38.73964 7.10756 16.3336-7.3593 25.49082-22.489 20.44018-33.77161-5.05068-11.28265-22.406-14.46681-38.73964-7.10754-1.02084.45994-2.06865.84818-3.03176 1.36602z" fill-rule="evenodd" opacity=".97"/><path d="m-338.65284-6.3417792.17073 90.5147462.17073 90.514733h-7.17065l.59756-181.0947892z"/><path d="m-338.76021-6.3417792c.58398 1.65167 1.0476 3.34252 1.38636 5.05612.85986 4.34956.92544 8.87663 2.49546 13.0394682 2.26259 5.9992 7.35464 10.53412 12.2 14.90224 9.70582 8.74986 19.32974 18.10018 24.67727 29.8045 6.5938 14.432046 5.95936 31.168369 1.38637 46.303411-1.74073 5.76118-4.02127 11.35627-6.23864 16.96461-.18725.47361-.37508.94947-.63421 1.39077-.25914.4413-.59457.8502-1.02942 1.13729-.29398.19408-.63384.33027-.98892.36393-.35509.0337-.72532-.0396-1.02131-.23087-.21599-.13957-.38735-.33741-.51116-.55725-.1238-.21985-.20159-.46149-.25134-.70679-.12855-.63375-.0729-1.28746 0-1.92931.22356-1.96888.60431-3.91851 1.03977-5.85445 1.15474-5.13361 2.69608-10.18458 3.73269-15.341347 1.73791-8.645512 2.01692-17.713044-.58818-26.155537-2.35898-7.644852-7.08578-14.601277-13.42376-19.755737s-14.26363-8.48783-22.50826-9.46652" opacity=".97"/><g stroke-width="4.964527" transform="matrix(.20142908 0 0 .20142908 .41055 1.549072)"><path d="m20.209064 161.4567c-14.4460005 8.09311-22.1434005 22.74362-17.4084205 33.76472 5.0506404 11.75589 22.4060105 15.07359 38.7396405 7.40566 16.3336-7.66796 25.49082-23.43222 20.44018-35.18804-5.05068-11.75587-22.406-15.07358-38.73964-7.40565-1.02084.47923-2.06865.88376-3.03176 1.42331z" fill-rule="evenodd" opacity=".97"/><path d="m62.951254.06349678.17073 88.00780522.17073 88.007798h-7.17065l.59756-176.07909576z"/><path d="m62.951254.00000376c.61803 1.45470004 1.10869 2.94391034 1.4672 4.45316034.90999 3.83086.9794 7.8180599 2.64096 11.4844599 2.39452 5.28378 7.78347 9.2779 12.91135 13.1251 10.27174 7.7064 20.456796 15.94166 26.116136 26.2502 6.97827 12.71097 6.30684 27.45142 1.4672 40.78156-1.84222 5.074146-4.25573 10.001996-6.60239 14.941516-.19817.41713-.39696.83624-.6712 1.22492s-.629229.74882-1.089439 1.00167c-.31112.17094-.67079.29088-1.04658.32054-.3758.0297-.76761-.0349-1.08086-.20335-.22858-.12292-.40994-.29717-.540957-.49079-.13102-.19363-.21334-.40647-.266-.62251-.13604-.55817-.0771-1.13393 0-1.69923.2366-1.73409.639547-3.45122 1.100397-5.15629 1.22207-4.52141 2.853279-8.970036 3.950329-13.511846 1.83924-7.6145 2.13452-15.60069-.62247-23.03639-2.496529-6.73317-7.498926-12.86002-14.206456-17.39979s-15.09531-7.47562-23.82066-8.3376" opacity=".97"/><path d="m56.981162 19.28463c.59395 1.61288 1.06549 3.26403 1.41004 4.9374.87454 4.24742.94124 8.6682 2.53807 12.73329 2.30123 5.85833 7.48024 10.28678 12.40835 14.55233 9.87157 8.5444 19.65985 17.67517 25.098717 29.10466 6.706401 14.09317 6.061131 30.43652 1.41004 45.21618-1.77045 5.62591-4.089937 11.08963-6.345177 16.56627-.19045.46249-.3815.92718-.64505 1.35812-.26356.43094-.60472.83023-1.047 1.11058-.299.18952-.64466.32251-1.00581.35539-.36116.0329-.73771-.0387-1.03875-.22545-.21968-.13629-.39397-.32949-.51989-.54417s-.20503-.45065-.25563-.69019c-.13075-.61887-.0741-1.25723 0-1.88401.22738-1.92265.61463-3.8265 1.05753-5.71698 1.17446-5.01307 2.74212-9.94544 3.79643-14.98113 1.76759-8.44251 2.05137-17.29713-.59823-25.54139-2.39926-7.46534-7.20678-14.25843-13.653-19.29185-6.44622-5.03343-14.50722-8.28853-22.89265-9.24425" opacity=".97"/></g><g transform="translate(-542.40915 -145.9657)"><path d="m600.54133-75.08428c-14.446 8.09311-22.1434 22.74362-17.40842 33.76472 5.05064 11.75589 22.40601 15.07359 38.73964 7.40566 16.3336-7.66796 25.49082-23.43222 20.44018-35.18804-5.05068-11.75587-22.406-15.07358-38.73964-7.40565-1.02084.47923-2.06865.88376-3.03176 1.42331z" fill-rule="evenodd" opacity=".97"/><path d="m643.28352-249.08409.17073 94.31111.17073 94.3111h-7.17065l.59756-188.69025z"/></g><g transform="translate(49.13245 160.8887)"><path d="m20.763615 165.67179c-14.4460001 8.09311-22.1434002 22.74362-17.4084202 33.76472 5.0506401 11.75589 22.4060102 15.07359 38.7396402 7.40566 16.3336-7.66796 25.49082-23.43222 20.44018-35.18804-5.05068-11.75587-22.406-15.07358-38.73964-7.40565-1.02084.47923-2.06865.88376-3.03176 1.42331z" fill-rule="evenodd" opacity=".97"/><path d="m63.505805.06502049.17073 90.11458651.17073 90.114583h-7.17065l.59756-180.29418151z"/></g><path d="m183.32825 537.99494c-.0782.79555-.68256 1.40368-1.19687 1.96109-1.15225 1.10754-2.56427 1.99311-4.12017 2.36584-.46096.0803-1.20431.15743-1.33738-.44577-.12869-.63823.34991-1.19826.71087-1.67032.93637-1.0914 2.16336-1.90662 3.46138-2.49046.67552-.25498 1.46154-.57669 2.16957-.26786.19352.1094.32686.31899.3126.54748zm-1.93652-1.64694c-1.75837.0126-3.42696.98907-4.51076 2.35816-.72453.93873-1.20559 2.29898-.61753 3.42466.4431.90504 1.50068 1.264 2.44275 1.21234 1.62491-.0343 3.13171-.9351 4.20842-2.12448.79704-.91485 1.38444-2.23856.92279-3.44802-.33386-.88056-1.25008-1.39227-2.15405-1.41323-.0971-.006-.19439-.009-.29162-.009z" stroke="#000" stroke-width=".262289" transform="matrix(7.744771 -3.9346946 9.9809278 3.4878179 -6384.1661 -1378.5202)"/><path d="m464.16312-211.74517a9.8520889 9.8520889 0 0 1 -2.20045 13.75595 9.8520889 9.8520889 0 0 1 -13.75662-2.19625 9.8520889 9.8520889 0 0 1 2.19205-13.75729 9.8520889 9.8520889 0 0 1 13.75795 2.18785"/><path d="m187.68954 160.65392h110.22377v324.68738h-110.22377z"/><path d="m594.51416 275.3067h102.46013v324.68738h-102.46013z"/><path d="m118.08224 109.69062h24.231169v15.762417h-24.231169z" opacity=".5"/><g transform="translate(82.499465 108.48723)"><path d="m183.32825 537.99494c-.0782.79555-.68256 1.40368-1.19687 1.96109-1.15225 1.10754-2.56427 1.99311-4.12017 2.36584-.46096.0803-1.20431.15743-1.33738-.44577-.12869-.63823.34991-1.19826.71087-1.67032.93637-1.0914 2.16336-1.90662 3.46138-2.49046.67552-.25498 1.46154-.57669 2.16957-.26786.19352.1094.32686.31899.3126.54748zm-1.93652-1.64694c-1.75837.0126-3.42696.98907-4.51076 2.35816-.72453.93873-1.20559 2.29898-.61753 3.42466.4431.90504 1.50068 1.264 2.44275 1.21234 1.62491-.0343 3.13171-.9351 4.20842-2.12448.79704-.91485 1.38444-2.23856.92279-3.44802-.33386-.88056-1.25008-1.39227-2.15405-1.41323-.0971-.006-.19439-.009-.29162-.009z" transform="matrix(1.651565 -.78052065 2.1284233 .69187426 -1436.1619 -225.13235)"/><path d="m23.547421 6.2647279a1.8294706 1.8294706 0 0 1 -.40861 2.5543928 1.8294706 1.8294706 0 0 1 -2.554517-.4078297 1.8294706 1.8294706 0 0 1 .407049-2.5546417 1.8294706 1.8294706 0 0 1 2.554765.4062699"/></g><path d="m183.32825 537.99494c-.0782.79555-.68256 1.40368-1.19687 1.96109-1.15225 1.10754-2.56427 1.99311-4.12017 2.36584-.46096.0803-1.20431.15743-1.33738-.44577-.12869-.63823.34991-1.19826.71087-1.67032.93637-1.0914 2.16336-1.90662 3.46138-2.49046.67552-.25498 1.46154-.57669 2.16957-.26786.19352.1094.32686.31899.3126.54748zm-1.93652-1.64694c-1.75837.0126-3.42696.98907-4.51076 2.35816-.72453.93873-1.20559 2.29898-.61753 3.42466.4431.90504 1.50068 1.264 2.44275 1.21234 1.62491-.0343 3.13171-.9351 4.20842-2.12448.79704-.91485 1.38444-2.23856.92279-3.44802-.33386-.88056-1.25008-1.39227-2.15405-1.41323-.0971-.006-.19439-.009-.29162-.009z" stroke="#000" stroke-width=".278524" transform="matrix(7.2975887 -3.7032088 9.40463 3.2826227 -4533.9506 -1307.7769)"/><g transform="translate(79.369371 -14.026335)"><path d="m183.32825 537.99494c-.0782.79555-.68256 1.40368-1.19687 1.96109-1.15225 1.10754-2.56427 1.99311-4.12017 2.36584-.46096.0803-1.20431.15743-1.33738-.44577-.12869-.63823.34991-1.19826.71087-1.67032.93637-1.0914 2.16336-1.90662 3.46138-2.49046.67552-.25498 1.46154-.57669 2.16957-.26786.19352.1094.32686.31899.3126.54748zm-1.93652-1.64694c-1.75837.0126-3.42696.98907-4.51076 2.35816-.72453.93873-1.20559 2.29898-.61753 3.42466.4431.90504 1.50068 1.264 2.44275 1.21234 1.62491-.0343 3.13171-.9351 4.20842-2.12448.79704-.91485 1.38444-2.23856.92279-3.44802-.33386-.88056-1.25008-1.39227-2.15405-1.41323-.0971-.006-.19439-.009-.29162-.009z" stroke="#000" stroke-width=".279064" transform="matrix(1.3435253 .13264328 -.13079403 1.5162963 -162.0961 -803.16522)"/><path d="m14.801045 1.5237207.03361 17.2887753.03634 18.654867-1.414461-1.366094.117646-34.5900219z"/></g><path d="m1921.8768-213.10484a11.616642 11.616642 0 0 1 -2.5946 16.21969 11.616642 11.616642 0 0 1 -16.2205-2.5896 11.616642 11.616642 0 0 1 2.5847-16.22128 11.616642 11.616642 0 0 1 16.222 2.5797"/><g transform="translate(954.76593 -749.44123)"><path d="m-303.11376 90.170314c-14.446 8.09311-22.1434 22.743616-17.40842 33.764716 5.05064 11.75589 22.40601 15.07359 38.73964 7.40566 16.3336-7.66796 25.49082-23.43222 20.44018-35.188036-5.05068-11.75587-22.406-15.07358-38.73964-7.40565-1.02084.47923-2.06865.88376-3.03176 1.42331z" fill-rule="evenodd" opacity=".97"/><path d="m-260.37157-83.829493.17073 94.311107.17073 94.311096h-7.17065l.59756-188.690248z"/><path d="m-63.49547 5.2681831c.583982 1.7209401 1.047606 3.4827103 1.386364 5.2681829.859856 4.531986.925444 9.248935 2.495455 13.586367 2.262596 6.250819 7.354645 10.975949 12.200003 15.527277 9.705818 9.11684 19.329738 18.859329 24.677279 31.054552 6.593799 15.037352 5.959364 32.475628 1.386364 48.245468-1.740722 6.00282-4.021266 11.83258-6.238638 17.67614-.18725.49347-.375085.98929-.634218 1.4491-.259134.45981-.594564.88586-1.029419 1.18499-.293981.20222-.633832.34412-.988921.3792-.355089.0351-.72532-.0413-1.021307-.24056-.215991-.14542-.387352-.35156-.511157-.58062-.123805-.22907-.201589-.48085-.251343-.73643-.128547-.66033-.07288-1.34146 0-2.01023.223565-2.05146.604309-4.08286 1.039773-6.1 1.154738-5.34892 2.696081-10.61174 3.73269-15.9848 1.73791-9.00812 2.016923-18.455962-.588184-27.252549-2.358978-7.965491-7.085775-15.213682-13.423754-20.584327-6.337979-5.370646-14.263629-8.843823-22.50826-9.863567" opacity=".97" transform="translate(-196.98347 -89.097676)"/></g><path d="m672.47711-315.18288c-14.446 7.76733-22.1434 21.8281-17.40842 32.40556 5.05064 11.28268 22.40601 14.46683 38.73964 7.10756 16.3336-7.3593 25.49082-22.48899 20.44018-33.7716-5.05068-11.28265-22.406-14.46681-38.73964-7.10754-1.02084.45994-2.06865.84818-3.03176 1.36602z" fill-rule="evenodd" opacity=".97"/><path d="m715.2193-482.17857.17073 90.51475.17073 90.51473h-7.17065l.59756-181.09479z"/><path d="m715.11193-482.17857c.58398 1.65167 1.0476 3.34252 1.38636 5.05612.85986 4.34956.92544 8.87663 2.49546 13.03947 2.26259 5.9992 7.35464 10.53412 12.2 14.90224 9.70582 8.74986 19.32974 18.10018 24.67727 29.8045 6.5938 14.43205 5.95936 31.16837 1.38637 46.30341-1.74073 5.76118-4.02127 11.35627-6.23864 16.96461-.18725.47361-.37508.94947-.63421 1.39077-.25914.4413-.59457.8502-1.02942 1.13729-.29398.19408-.63384.33027-.98892.36393-.35509.0337-.72532-.0396-1.02131-.23087-.21599-.13957-.38735-.33741-.51116-.55725-.1238-.21985-.20159-.46149-.25134-.70679-.12855-.63375-.0729-1.28746 0-1.92931.22356-1.96888.60431-3.91851 1.03977-5.85445 1.15474-5.13361 2.69608-10.18458 3.73269-15.34135 1.73791-8.64551 2.01692-17.71304-.58818-26.15553-2.35898-7.64486-7.08578-14.60128-13.42376-19.75574s-14.26363-8.48783-22.50826-9.46652" opacity=".97"/><g transform="translate(1613.1072 -871.94665)"><path d="m20.209064 161.4567c-14.4460005 8.09311-22.1434005 22.74362-17.4084205 33.76472 5.0506404 11.75589 22.4060105 15.07359 38.7396405 7.40566 16.3336-7.66796 25.49082-23.43222 20.44018-35.18804-5.05068-11.75587-22.406-15.07358-38.73964-7.40565-1.02084.47923-2.06865.88376-3.03176 1.42331z" fill-rule="evenodd" opacity=".97"/><path d="m62.951254.06349678.17073 88.00780522.17073 88.007798h-7.17065l.59756-176.07909576z"/><path d="m62.951254.00000376c.61803 1.45470004 1.10869 2.94391034 1.4672 4.45316034.90999 3.83086.9794 7.8180599 2.64096 11.4844599 2.39452 5.28378 7.78347 9.2779 12.91135 13.1251 10.27174 7.7064 20.456796 15.94166 26.116136 26.2502 6.97827 12.71097 6.30684 27.45142 1.4672 40.78156-1.84222 5.074146-4.25573 10.001996-6.60239 14.941516-.19817.41713-.39696.83624-.6712 1.22492s-.629229.74882-1.089439 1.00167c-.31112.17094-.67079.29088-1.04658.32054-.3758.0297-.76761-.0349-1.08086-.20335-.22858-.12292-.40994-.29717-.540957-.49079-.13102-.19363-.21334-.40647-.266-.62251-.13604-.55817-.0771-1.13393 0-1.69923.2366-1.73409.639547-3.45122 1.100397-5.15629 1.22207-4.52141 2.853279-8.970036 3.950329-13.511846 1.83924-7.6145 2.13452-15.60069-.62247-23.03639-2.496529-6.73317-7.498926-12.86002-14.206456-17.39979s-15.09531-7.47562-23.82066-8.3376" opacity=".97"/><path d="m56.981162 19.28463c.59395 1.61288 1.06549 3.26403 1.41004 4.9374.87454 4.24742.94124 8.6682 2.53807 12.73329 2.30123 5.85833 7.48024 10.28678 12.40835 14.55233 9.87157 8.5444 19.65985 17.67517 25.098717 29.10466 6.706401 14.09317 6.061131 30.43652 1.41004 45.21618-1.77045 5.62591-4.089937 11.08963-6.345177 16.56627-.19045.46249-.3815.92718-.64505 1.35812-.26356.43094-.60472.83023-1.047 1.11058-.299.18952-.64466.32251-1.00581.35539-.36116.0329-.73771-.0387-1.03875-.22545-.21968-.13629-.39397-.32949-.51989-.54417s-.20503-.45065-.25563-.69019c-.13075-.61887-.0741-1.25723 0-1.88401.22738-1.92265.61463-3.8265 1.05753-5.71698 1.17446-5.01307 2.74212-9.94544 3.79643-14.98113 1.76759-8.44251 2.05137-17.29713-.59823-25.54139-2.39926-7.46534-7.20678-14.25843-13.653-19.29185-6.44622-5.03343-14.50722-8.28853-22.89265-9.24425" opacity=".97"/></g><g transform="translate(511.46299 -621.80249)"><path d="m600.54133-75.08428c-14.446 8.09311-22.1434 22.74362-17.40842 33.76472 5.05064 11.75589 22.40601 15.07359 38.73964 7.40566 16.3336-7.66796 25.49082-23.43222 20.44018-35.18804-5.05068-11.75587-22.406-15.07358-38.73964-7.40565-1.02084.47923-2.06865.88376-3.03176 1.42331z" fill-rule="evenodd" opacity=".97"/><path d="m643.28352-249.08409.17073 94.31111.17073 94.3111h-7.17065l.59756-188.69025z"/></g><g transform="translate(1595.3116 -515.9934)"><path d="m20.763615 165.67179c-14.4460001 8.09311-22.1434002 22.74362-17.4084202 33.76472 5.0506401 11.75589 22.4060102 15.07359 38.7396402 7.40566 16.3336-7.66796 25.49082-23.43222 20.44018-35.18804-5.05068-11.75587-22.406-15.07358-38.73964-7.40565-1.02084.47923-2.06865.88376-3.03176 1.42331z" fill-rule="evenodd" opacity=".97"/><path d="m63.505805.06502049.17073 90.11458651.17073 90.114583h-7.17065l.59756-180.29418151z"/></g><path d="m183.32825 537.99494c-.0782.79555-.68256 1.40368-1.19687 1.96109-1.15225 1.10754-2.56427 1.99311-4.12017 2.36584-.46096.0803-1.20431.15743-1.33738-.44577-.12869-.63823.34991-1.19826.71087-1.67032.93637-1.0914 2.16336-1.90662 3.46138-2.49046.67552-.25498 1.46154-.57669 2.16957-.26786.19352.1094.32686.31899.3126.54748zm-1.93652-1.64694c-1.75837.0126-3.42696.98907-4.51076 2.35816-.72453.93873-1.20559 2.29898-.61753 3.42466.4431.90504 1.50068 1.264 2.44275 1.21234 1.62491-.0343 3.13171-.9351 4.20842-2.12448.79704-.91485 1.38444-2.23856.92279-3.44802-.33386-.88056-1.25008-1.39227-2.15405-1.41323-.0971-.006-.19439-.009-.29162-.009z" stroke="#000" stroke-width=".262289" transform="matrix(7.744771 -3.9346946 9.9809278 3.4878179 -5424.2163 -1854.357)"/><g transform="translate(1411.24 -877.15687)"><path d="m183.32825 537.99494c-.0782.79555-.68256 1.40368-1.19687 1.96109-1.15225 1.10754-2.56427 1.99311-4.12017 2.36584-.46096.0803-1.20431.15743-1.33738-.44577-.12869-.63823.34991-1.19826.71087-1.67032.93637-1.0914 2.16336-1.90662 3.46138-2.49046.67552-.25498 1.46154-.57669 2.16957-.26786.19352.1094.32686.31899.3126.54748zm-1.93652-1.64694c-1.75837.0126-3.42696.98907-4.51076 2.35816-.72453.93873-1.20559 2.29898-.61753 3.42466.4431.90504 1.50068 1.264 2.44275 1.21234 1.62491-.0343 3.13171-.9351 4.20842-2.12448.79704-.91485 1.38444-2.23856.92279-3.44802-.33386-.88056-1.25008-1.39227-2.15405-1.41323-.0971-.006-.19439-.009-.29162-.009z" stroke="#000" stroke-width=".262289" transform="matrix(7.744771 -3.9346946 9.9809278 3.4878179 -6741.5339 -977.20007)"/><path d="m106.79528 189.57491a9.8520889 9.8520889 0 0 1 -2.20045 13.75595 9.8520889 9.8520889 0 0 1 -13.756619-2.19625 9.8520889 9.8520889 0 0 1 2.192048-13.75729 9.8520889 9.8520889 0 0 1 13.757951 2.18785"/></g><path d="m1241.5616-315.18286h110.22377v324.68738h-110.22377z"/><path d="m1648.3862-200.53011h102.46013v324.68738h-102.46013z"/></svg>