<svg fill="none" height="80" viewBox="0 0 24 80" width="24" xmlns="http://www.w3.org/2000/svg"><path clip-rule="evenodd" d="m9.29043 62.8014c-2.32392-.5476-3.98274-1.7299-4.70386-3.116-.3391-.627-.53997-1.3106-.58517-2.0223-.00069-.0108-.00062-.0204-.00079-.0307-.01363-.7949.20089-1.5457.85713-2.3934.60179-.7818 1.52311-1.4515 2.71438-1.9659 1.25956-.5461 2.75248-.8167 4.36138-.7674.3272.0101.6498.0329.9667.0677.3444.035.6822.0843 1.0117.1469.6404.1046 1.25.263 1.8188.468.5592.1936 1.0724.4259 1.5769.726.4463.2654.7942.526 1.1356.8413.1711.1644.3301.3357.476.513.115.1445.2219.2919.3202.4419.1091.1744.2055.3416.2954.531.2943.62.4492 1.3239.4652 1.9195.0004 1.1797-.6029 2.2407-1.6119 3.0776-.7436.6434-1.6343 1.1237-2.7874 1.4828-.8591.2676-1.7547.412-2.644.4376-.2946.0148-.522.0041-.8215.0013-1.0092-.0323-1.9657-.1563-2.84477-.3589zm5.00137-1.4961c.1543-.1187.2607-.2282.4232-.4185.2813-.3296.4679-.6587.5847-1.0924.0131-.0425.025-.0852.0355-.1281.0255-.1001.0439-.201.0557-.3021.024-.3299.0056-.7181-.0937-1.0922-.0252-.1086-.0493-.2101-.073-.307-.1014-.4494-.1995-.7934-.3657-1.2588-.0099-.0262-.0225-.0656-.0327-.0918-.3511-.9073-.7143-1.5267-1.2279-1.988-.7001-.6565-1.7313-1.0237-2.832-.6884-.4408.1342-.80801.3616-1.05146.6081-.14183.141-.2801.3159-.38747.4863-.27228.435-.40336.7647-.4471 1.2282-.0096.1634-.02048.3621 0 .5525.03393.2133.05455.392.09822.5977.1218.6207.29485 1.1872.4325 1.6125.00156.0048.00292.0097.00438.0146.06575.2182.14492.4261.23563.6229.07455.1699.16686.3641.25601.517.05991.1074.12299.212.18819.3108.1118.1707.2181.2896.3389.4257.1911.2086.3918.3773.5994.5109.3259.1974.6624.3168 1.0002.3744.6198.127 1.3118.0186 1.6766-.1532.2419-.114.3716-.1795.5819-.3411z" fill="#000" fill-rule="evenodd"/></svg>